PathFileType	4	(X/Y/Z)	/Users/niels/Desktop/University/Third Semester/Perception and Action/Exam/Gymnastics Motion Tracking/Code for Gym Tracking/Analyzed Data/Backflip/backflip_good_idn_4_Sports2D/backflip_good_idn_4_Sports2D_px_person00.trc
DataRate	CameraRate	NumFrames	NumMarkers	Units	OrigDataRate	OrigDataStartFrame	OrigNumFrames
60.11730205278593	60.11730205278593	9	22	m	60.11730205278593	128	206
Frame#	Time	Hip			RHip			RKnee			RAnkle			RBigToe			RSmallToe			RHeel			LHip			LKnee			LAnkle			LBigToe			LSmallToe			LHeel			Neck			Head			Nose			RShoulder			RElbow			RWrist			LShoulder			LElbow			LWrist		
		X1	Y1	Z1	X2	Y2	Z2	X3	Y3	Z3	X4	Y4	Z4	X5	Y5	Z5	X6	Y6	Z6	X7	Y7	Z7	X8	Y8	Z8	X9	Y9	Z9	X10	Y10	Z10	X11	Y11	Z11	X12	Y12	Z12	X13	Y13	Z13	X14	Y14	Z14	X15	Y15	Z15	X16	Y16	Z16	X17	Y17	Z17	X18	Y18	Z18	X19	Y19	Z19	X20	Y20	Z20	X21	Y21	Z21	X22	Y22	Z22
128	2.1291707317073167	1.0759037559929194	-0.590973074626164	0.0	1.0785159820553167	-0.5928423272541729	0.0	1.103684136483232	-0.6916199223089353	0.0	1.0852864772549984	-0.7669521213850166	0.0	1.1073355900364041	-0.749520699751141	0.0	1.0999126859805233	-0.7513904242548554	0.0	1.077943739682664	-0.7364659975280087	0.0	1.0734084649669655	-0.5922471473731563	0.0	1.100963713780628	-0.6891403889720185	0.0	1.0835415318855104	-0.7700443302971861	0.0	1.1122980131734699	-0.7289154920240928	0.0	1.1041164460601973	-0.7291439548923098	0.0	1.075904758296527	-0.7364026890272695	0.0	1.0817423756799291	-0.4619283468122214	0.0	1.0919854456368858	-0.4053988390331827	0.0	1.10302654928245	-0.43220170752828707	0.0	1.082644000622098	-0.4675826323118945	0.0	1.1159709099760564	-0.4211701527800825	0.0	1.1296848891061826	-0.3710993354956955	0.0	1.0749413282926286	-0.4703188875748841	0.0	1.1133113607429368	-0.4226516379713068	0.0	1.1232241394362996	-0.3747567577150286	0.0
129	2.14580487804878	1.0792270906046195	-0.5834313459179847	0.0	1.081963081950184	-0.5851966788896569	0.0	1.102814820433776	-0.6855156117156967	0.0	1.0852696727597477	-0.7608027012858724	0.0	1.1058257913890936	-0.7431282906093136	0.0	1.099554310405276	-0.7451748942762055	0.0	1.078184890012849	-0.7335143050848919	0.0	1.0769007042639014	-0.5847582270410787	0.0	1.1001053418131457	-0.6829986216025342	0.0	1.0836886393810397	-0.7632108118108554	0.0	1.1114239409340017	-0.7269220099779573	0.0	1.1029521609855477	-0.7275276681056053	0.0	1.0767546668676804	-0.7328346247922417	0.0	1.0783368641882554	-0.45459655595406206	0.0	1.0842705491853784	-0.39772938466452973	0.0	1.0964446930773566	-0.4233536857311172	0.0	1.078852457339363	-0.45959627339195674	0.0	1.1060313274085698	-0.40552031755554924	0.0	1.1131955263437878	-0.35156654172548785	0.0	1.072070452993363	-0.46294007295839035	0.0	1.1042478744477455	-0.40776099746427485	0.0	1.1072891347739624	-0.3556078671474266	0.0
130	2.1624390243902436	1.0822824400179334	-0.5742043170146888	0.0	1.085032473417028	-0.5758462028237615	0.0	1.1027368479336432	-0.6772758863221858	0.0	1.0855117389253595	-0.7530231933479877	0.0	1.104828012009778	-0.7370927133515772	0.0	1.0993359448379598	-0.7392827018348297	0.0	1.0786268825720524	-0.7302066087199415	0.0	1.080333154566258	-0.5755529391262929	0.0	1.1001491056682815	-0.6747823258199492	0.0	1.084249633694381	-0.7546469553708284	0.0	1.1111134074634705	-0.724919263296505	0.0	1.1024857355698465	-0.725829642185413	0.0	1.0777394803361409	-0.7288625775521178	0.0	1.0746438740977753	-0.44596313549780386	0.0	1.0764866780037474	-0.38873542329918437	0.0	1.0898024217890803	-0.4133351471892609	0.0	1.0746269389609437	-0.45046506231488576	0.0	1.0954714024785623	-0.3902223108848974	0.0	1.0963993103167518	-0.3334629150326895	0.0	1.06901921290572	-0.4542229084291519	0.0	1.0945567048664282	-0.39315462182152716	0.0	1.0910835397785974	-0.3377589655908272	0.0
131	2.179073170731707	1.0849638866261309	-0.5635252400581029	0.0	1.0876334745414262	-0.5650645928125014	0.0	1.103685860930723	-0.6670503168102284	0.0	1.0862756661489574	-0.7439310410900779	0.0	1.1046286593369747	-0.7314222663125829	0.0	1.0995147137127597	-0.7337041196503179	0.0	1.0795033154031115	-0.7263306719697948	0.0	1.0835393844652836	-0.5648914188687101	0.0	1.101263549702107	-0.6646445701287205	0.0	1.0854243488177844	-0.7448019845306072	0.0	1.1115570385935052	-0.7227305475704536	0.0	1.1029223695219832	-0.7238384169051977	0.0	1.0790492755002308	-0.7243302512953318	0.0	1.0705876722354288	-0.436220625806744	0.0	1.0687460580589074	-0.37859441391038323	0.0	1.0831831356247494	-0.4023953971450713	0.0	1.0699322971412135	-0.4403662843120525	0.0	1.0846848607826134	-0.3753868547579904	0.0	1.0799632798784429	-0.31674660112634045	0.0	1.0656980738194708	-0.4443302412064478	0.0	1.0845327242247125	-0.37893016946688945	0.0	1.0751799634768444	-0.32122230126488366	0.0
132	2.1957073170731705	1.0871874192249864	-0.5516867033548141	0.0	1.0896981136420911	-0.5531781243412816	0.0	1.1058439647235943	-0.6549846809689255	0.0	1.0878363941862956	-0.733683631053479	0.0	1.1054612581758163	-0.7259044165734647	0.0	1.1003816413827785	-0.7282112499494754	0.0	1.0810795805132705	-0.7215506912652473	0.0	1.0863707581814472	-0.5530870992215391	0.0	1.1035706743392126	-0.6527267838175731	0.0	1.087428165867784	-0.7339130674833351	0.0	1.1129068209284636	-0.7200709132702034	0.0	1.1044240980959341	-0.7212477120699159	0.0	1.0809277542634737	-0.7189680590449311	0.0	1.0661389053750474	-0.4256314680173354	0.0	1.0611594152233441	-0.3675513509167416	0.0	1.0766613397987534	-0.3908305524255379	0.0	1.0647794719469659	-0.429534970707237	0.0	1.0740178472205526	-0.3610970468770517	0.0	1.0644305103503882	-0.3013169957222726	0.0	1.0620586556365477	-0.4334958017680908	0.0	1.0744407326042054	-0.36515910524338363	0.0	1.060047158834902	-0.30594784368236044	0.0
133	2.2123414634146337	1.0888952138058567	-0.5390246616595425	0.0	1.091180877007643	-0.5405372474368818	0.0	1.1093149593530358	-0.6411944419696928	0.0	1.0904349557355153	-0.7222845053656216	0.0	1.1074923627296298	-0.7201667728729321	0.0	1.10222410327128	-0.7224249595380627	0.0	1.0836081124102344	-0.7154713856148514	0.0	1.0887181974719673	-0.5404779203203451	0.0	1.1071257833038641	-0.6391433559970284	0.0	1.0904554041509593	-0.7220260867355623	0.0	1.1152747808862522	-0.7165765832042591	0.0	1.1071114965411637	-0.7176924460161933	0.0	1.0836196114014023	-0.712457464855677	0.0	1.0613156918297304	-0.4144983021665647	0.0	1.053835684618567	-0.3558898949321416	0.0	1.0702950290794522	-0.3789517361025666	0.0	1.059225620450242	-0.418242035123943	0.0	1.0637612620686112	-0.3474123334560248	0.0	1.0502195637863732	-0.28704005156077056	0.0	1.0581104097368041	-0.42199512477387513	0.0	1.0645154116278657	-0.3518868216341333	0.0	1.046056971374075	-0.29183575498041575	0.0
134	2.2289756097560973	1.0900582970860027	-0.5259023814936469	0.0	1.0920567456014663	-0.5274977508666627	0.0	1.1141042311660099	-0.625766691196832	0.0	1.094244382155879	-0.7096446675932964	0.0	1.1108394914879434	-0.7137644810938127	0.0	1.10529000170013	-0.7159024849379267	0.0	1.0872767154202696	-0.707720770598276	0.0	1.090520087109309	-0.5274056801045873	0.0	1.1118959277451048	-0.6239871013319268	0.0	1.0946399741364874	-0.7090694427494839	0.0	1.1187463923001184	-0.7118535118531817	0.0	1.111070273698733	-0.7127955682356351	0.0	1.0873005113197387	-0.7044987922043269	0.0	1.0561746319815652	-0.4031296854741558	0.0	1.0468896568015102	-0.343903804734309	0.0	1.0641442274953723	-0.367063342884778	0.0	1.0533602001929232	-0.40677182481861196	0.0	1.0541491225743154	-0.3343830358251004	0.0	1.0376318871021695	-0.27377983402885536	0.0	1.0539125559921818	-0.41012559212414873	0.0	1.0549672011407558	-0.33915306872953377	0.0	1.0334892929376527	-0.2787745543050488	0.0
135	2.2456097560975605	1.0906701993758057	-0.5126883120892843	0.0	1.092320636513909	-0.5144058482434372	0.0	1.1200958844939235	-0.6087823659139675	0.0	1.0993520367134935	-0.6956408037693502	0.0	1.115588756602653	-0.7062314846208587	0.0	1.1097622841947181	-0.708187391729502	0.0	1.0921820998085883	-0.6979994234560414	0.0	1.09174983326281	-0.5142008372088227	0.0	1.1177418866644966	-0.6073402595231451	0.0	1.1000322454392046	-0.6949121617694874	0.0	1.123385802207467	-0.705499698347074	0.0	1.1163434531436325	-0.7061872173675008	0.0	1.0920441075009462	-0.6948341381216486	0.0	1.0507970445698602	-0.39181578812770884	0.0	1.0404398253420808	-0.33187051772192677	0.0	1.0582830458678825	-0.35544391383939444	0.0	1.0472963044134662	-0.3953936944719356	0.0	1.0453627067197029	-0.32206873697326777	0.0	1.0268656938382017	-0.2614197831979459	0.0	1.049542114595398	-0.3981885900533536	0.0	1.0459855921497632	-0.3270173869010943	0.0	1.022542298931316	-0.2666715348521899	0.0
136	2.262243902439024	1.090734409271659	-0.4997244510995211	0.0	1.091983668272436	-0.5015761082841861	0.0	1.1270389479992882	-0.5903280014668878	0.0	1.1057630564625782	-0.6801443846723902	0.0	1.1218071728642067	-0.6970858453377685	0.0	1.1157634051096723	-0.6988188484101312	0.0	1.0983440328281555	-0.6860889366792795	0.0	1.0923966800647615	-0.5011626152161337	0.0	1.124418687195224	-0.5892688203418068	0.0	1.106608685546256	-0.6793878931349147	0.0	1.1292501685125262	-0.6970940322868555	0.0	1.1229374059755504	-0.6974881759468594	0.0	1.0978483309034657	-0.6832386249620791	0.0	1.0452725301523458	-0.38080746935326265	0.0	1.0345829871060357	-0.32002783990505956	0.0	1.0527820588425982	-0.3443226090773345	0.0	1.041165050083692	-0.38432947914388077	0.0	1.0375374450312704	-0.31054377963473184	0.0	1.0180298403049204	-0.24987600856315573	0.0	1.0450571239985118	-0.38646103995294795	0.0	1.0377360556455077	-0.31556406465438946	0.0	1.0133427496884702	-0.2554651538720217	0.0
